<svg height="800" viewBox="0 0 800 800" width="800" xmlns="http://www.w3.org/2000/svg"><g fill="none" fill-rule="evenodd"><path d="m0 0h800v800h-800z"/><g fill="#adddd5" fill-rule="nonzero" transform="translate(31.394574 61)"><path d="m245.950588.14091057c-51.527177 0-93.298208 41.77103033-93.298208 93.29820743 0 51.527177 41.771031 93.298207 93.298208 93.298207s93.298207-41.77103 93.298207-93.298207c0-51.5271771-41.77103-93.29820743-93.298207-93.29820743zm0 14.92771323c43.282829 0 78.370494 35.0876654 78.370494 78.3704942 0 43.282829-35.087665 78.370494-78.370494 78.370494s-78.370494-35.087665-78.370494-78.370494c0-43.2828288 35.087665-78.3704942 78.370494-78.3704942z"/><path d="m245.950588 171.436419c70.894344 0 127.631948 67.452001 127.631948 150.396711 0 4.122174-3.341683 7.463856-7.463857 7.463856s-7.463857-3.341682-7.463857-7.463856c0-75.216974-50.681305-135.468997-112.704234-135.468997-61.911122 0-112.704235 60.493943-112.704235 135.468997 0 4.122174-3.341682 7.463856-7.463856 7.463856-4.122175 0-7.463857-3.341682-7.463857-7.463856 0-82.698116 56.842424-150.396711 127.631948-150.396711z"/><path d="m485.913577.14091057c-51.527177 0-93.298207 41.77103033-93.298207 93.29820743 0 51.527177 41.77103 93.298207 93.298207 93.298207s93.298208-41.77103 93.298208-93.298207c0-51.5271771-41.771031-93.29820743-93.298208-93.29820743zm0 14.92771323c43.282829 0 78.370495 35.0876654 78.370495 78.3704942 0 43.282829-35.087666 78.370494-78.370495 78.370494-43.282828 0-78.370494-35.087665-78.370494-78.370494 0-43.2828288 35.087666-78.3704942 78.370494-78.3704942z"/><path d="m485.913577 171.436419c70.894345 0 127.631948 67.452001 127.631948 150.396711 0 4.122174-3.341682 7.463856-7.463856 7.463856-4.122175 0-7.463857-3.341682-7.463857-7.463856 0-75.216974-50.681305-135.468997-112.704235-135.468997-61.911122 0-112.704234 60.493943-112.704234 135.468997 0 4.122174-3.341683 7.463856-7.463857 7.463856s-7.463856-3.341682-7.463856-7.463856c0-82.698116 56.842423-150.396711 127.631947-150.396711z"/><path d="m127.648461 348.329821c-51.5271774 0-93.2982077 41.77103-93.2982077 93.298207s41.7710303 93.298208 93.2982077 93.298208c51.527177 0 93.298207-41.771031 93.298207-93.298208s-41.77103-93.298207-93.298207-93.298207zm0 14.927713c43.282829 0 78.370494 35.087665 78.370494 78.370494s-35.087665 78.370494-78.370494 78.370494c-43.2828291 0-78.3704945-35.087665-78.3704945-78.370494s35.0876654-78.370494 78.3704945-78.370494z"/><path d="m128.021654 519.998522c70.894344 0 127.631947 67.452001 127.631947 150.396711 0 4.122174-3.341682 7.463856-7.463856 7.463856s-7.463857-3.341682-7.463857-7.463856c0-75.216974-50.681305-135.468997-112.704234-135.468997-61.9111223 0-112.704235 60.493943-112.704235 135.468997 0 4.122174-3.3416824 7.463856-7.46385662 7.463856-4.12217417 0-7.46385659-3.341682-7.46385659-7.463856 0-82.698116 56.84242361-150.396711 127.63194821-150.396711z"/><path d="m367.61145 348.329821c-51.527177 0-93.298207 41.77103-93.298207 93.298207s41.77103 93.298208 93.298207 93.298208 93.298208-41.771031 93.298208-93.298208-41.771031-93.298207-93.298208-93.298207zm0 14.927713c43.282829 0 78.370495 35.087665 78.370495 78.370494s-35.087666 78.370494-78.370495 78.370494-78.370494-35.087665-78.370494-78.370494 35.087665-78.370494 78.370494-78.370494z"/><path d="m367.984643 519.998522c70.894345 0 127.631948 67.452001 127.631948 150.396711 0 4.122174-3.341683 7.463856-7.463857 7.463856s-7.463856-3.341682-7.463856-7.463856c0-75.216974-50.681305-135.468997-112.704235-135.468997-61.911122 0-112.704234 60.493943-112.704234 135.468997 0 4.122174-3.341683 7.463856-7.463857 7.463856s-7.463857-3.341682-7.463857-7.463856c0-82.698116 56.842424-150.396711 127.631948-150.396711z"/><path d="m607.57444 348.329821c-51.527177 0-93.298208 41.77103-93.298208 93.298207s41.771031 93.298208 93.298208 93.298208 93.298207-41.771031 93.298207-93.298208-41.77103-93.298207-93.298207-93.298207zm0 14.927713c43.282829 0 78.370494 35.087665 78.370494 78.370494s-35.087665 78.370494-78.370494 78.370494-78.370494-35.087665-78.370494-78.370494 35.087665-78.370494 78.370494-78.370494z"/><path d="m607.947633 519.998522c70.894344 0 127.631947 67.452001 127.631947 150.396711 0 4.122174-3.341682 7.463856-7.463856 7.463856s-7.463857-3.341682-7.463857-7.463856c0-75.216974-50.681305-135.468997-112.704234-135.468997-61.911122 0-112.704235 60.493943-112.704235 135.468997 0 4.122174-3.341682 7.463856-7.463857 7.463856-4.122174 0-7.463856-3.341682-7.463856-7.463856 0-82.698116 56.842423-150.396711 127.631948-150.396711z"/></g></g></svg>