<svg width="157" height="89" viewBox="0 0 157 89" xmlns="http://www.w3.org/2000/svg" version="0"><title>  Hull 2017 logo</title><g style="fill-rule:evenodd;fill:none"><g fill="#FFF32A"><path d="M120.2 10C120.2 13.1 118 14.9 114.9 14.9 111.8 14.9 109.7 13.1 109.7 10L109.7 0 113.5 0 113.5 9.9C113.5 10.8 114 11.3 115 11.3 115.9 11.3 116.5 10.8 116.5 9.9L116.5 0 120.2 0 120.2 10ZM122.7 0L126.5 0 126.5 11.3 132 11.3 132 14.7 122.7 14.7 122.7 0ZM134.6 0L138.4 0 138.4 11.3 143.9 11.3 143.9 14.7 134.6 14.7 134.6 0ZM103.3 0L107.1 0 107.1 14.7 103.3 14.7 103.3 9.3 100.2 9.3 100.2 14.7 96.4 14.7 96.4 0 100.2 0 100.2 5.5 103.3 5.5 103.3 0Z"/><path d="M116.8 27.4L116.8 28.4C116.8 29.3 116.2 29.8 115.3 29.8 114.3 29.8 113.8 29.3 113.8 28.4L113.8 27.4 113.8 22.5 113.8 21.8C113.8 20.9 114.3 20.4 115.3 20.4 116.2 20.4 116.8 20.9 116.8 21.8L116.8 22.5 116.8 27.4ZM120.5 28.5C120.5 31.6 118.3 33.4 115.2 33.4 112.1 33.4 110 31.6 110 28.5L110 27.4 110 22.5 110 21.7C110 18.6 112.1 16.8 115.2 16.8 118.3 16.8 120.5 18.6 120.5 21.7L120.5 22.5 120.5 27.4 120.5 28.5ZM107.6 21.8C107.6 21.8 107.6 21.9 107.6 21.9 107.6 21.9 107.6 21.8 107.6 21.8 107.5 22.5 107.4 23.1 107.2 23.7 107.1 23.7 107.1 23.8 107.1 23.9 107 24.1 106.9 24.2 106.8 24.4 106.2 25.4 105.3 25.9 104.3 26.4 104 26.6 103.7 26.8 103.4 26.9 102.4 27.5 101.5 28.4 101.1 29.3L107.1 29.3 107.1 33 96.4 33 96.4 31.3C96.4 29.4 96.8 28.2 97.6 27.1 98 26.5 98.6 26 99.4 25.4 99.5 25.3 99.7 25.2 99.8 25.1 100 25 100.1 25 100.2 24.9 100.6 24.6 101 24.4 101.4 24.1 101.5 24.1 101.5 24.1 101.5 24.1 101.6 24 101.7 24 101.8 23.9 102.5 23.5 102.9 23.3 103.3 22.9 103.4 22.8 103.5 22.8 103.5 22.7 103.6 22.6 103.6 22.6 103.6 22.5 103.6 22.5 103.7 22.5 103.7 22.4 103.7 22.4 103.7 22.3 103.7 22.3 103.8 22.2 103.8 22.2 103.8 22.1 103.8 22.1 103.8 22 103.8 22 103.8 21.9 103.8 21.9 103.8 21.9L103.8 21.9C103.8 21.8 103.8 21.8 103.8 21.8L103.8 21.8C103.9 20.9 103.2 20.4 102.1 20.3 102.1 20.3 102.1 20.3 102 20.3 102 20.3 101.9 20.3 101.9 20.3 100.8 20.3 100.1 20.9 100.1 21.7L100.1 22.3 96.4 22.3 96.4 21.7C96.4 18.6 98.6 16.8 101.7 16.8 101.7 16.8 101.8 16.8 101.9 16.8 102 16.8 102.1 16.8 102.2 16.8 103.8 16.8 105.2 17.3 106.1 18.2 107.2 19.1 107.6 20.5 107.6 21.7 107.6 21.8 107.6 21.8 107.6 21.8ZM134.6 17.2L143.9 17.2C143.9 17.3 143.9 17.5 143.9 17.7 143.9 18.9 143.9 20.1 143.5 21.2 143.1 22.6 142.3 23.7 141.3 25 140.4 26 139.6 27.1 139.1 28.4 138.7 29.6 138.7 30.9 138.7 32.1L138.7 33 134.9 33 134.9 31.8C134.9 30.1 135 28.8 135.4 27.6 135.9 26.2 136.9 24.8 137.8 23.8 138.8 22.6 139.4 21.7 139.6 21.4 139.7 21.1 139.8 20.8 139.8 20.6L139.7 20.6 134.6 20.6 134.6 17.2 134.6 17.2 134.6 17.2ZM132 29.2L132 33 122.7 33 122.7 29.2 125.5 29.2 125.5 20.6 122.7 20.6 122.7 17.1 129.3 17.1 129.3 17.2 129.3 20.6 129.3 29.2 132 29.2Z"/><path d="M102.5 35.5L103.6 35.5 103.6 43.3C103.6 45.3 102.2 46.6 100 46.6 97.8 46.6 96.4 45.4 96.4 43.3L96.4 35.5 97.6 35.5 97.6 43.2C97.6 44.7 98.6 45.6 100 45.6 101.5 45.6 102.5 44.7 102.5 43.2L102.5 35.5ZM109.1 40.7L115.3 46.4 113.5 46.4 108.3 41.5 108.3 46.4 107.1 46.4 107.1 35.5 108.3 35.5 108.3 39.9 113.3 35.5 115 35.5 109.1 40.7ZM102.4 57.2L102.4 57.2 103.6 57.2 103.5 57.3C103.3 59 102 60.1 100 60.1 97.8 60.1 96.4 58.8 96.4 56.7L96.4 52.1C96.4 50 97.8 48.8 100 48.8 102.2 48.8 103.5 50 103.6 52L103.6 52.1 102.5 52.1 102.5 52C102.4 50.7 101.5 49.8 100 49.8 98.6 49.8 97.6 50.8 97.6 52.2L97.6 56.7C97.6 58.1 98.6 59.1 100 59.1 101.3 59.1 102.2 58.4 102.4 57.2ZM105.2 53.1L105.2 52 108.3 52 108.3 59.9 107.1 59.9 107.1 53.1 105.2 53.1ZM107.1 50L107.1 49 108.3 49 108.3 50 107.1 50ZM117.1 52.9L113.9 52.9 113.9 57.6C113.9 58.6 114.3 59 115.1 59 115.7 59 116.3 58.8 116.9 58.5L117.1 58.4 117.1 59.5 117 59.6C116.4 59.9 115.8 60.1 115.1 60.1 114.1 60.1 112.7 59.8 112.7 57.7L112.7 52.9 110.7 52.9 110.7 51.8 112.7 51.8 112.7 49.7 113.9 49.4 113.9 51.8 117.1 51.8 117.1 52.9ZM126.3 51.8L127.6 51.8 122.5 61.1C122 62.1 121.2 62.6 120.3 62.6L119.8 62.6 119.8 61.6 120.3 61.6C120.8 61.6 121.2 61.3 121.5 60.8L123 58 119.3 51.8 120.7 51.8 123.6 56.9 126.3 51.8ZM110.2 62.5L111.1 62.5 111.1 63.5 110.3 63.5C108.8 63.5 108.3 64 108.3 65.4L108.3 66.2 110.2 66.2 110.2 67.2 108.3 67.2 108.3 74.3 107.1 74.3 107.1 67.2 105.3 67.2 105.3 66.2 107.1 66.2 107.1 65.2C107.1 63.3 108 62.5 110.2 62.5ZM102.4 85L102.5 84.9 103.6 84.9 103.6 85C103.4 86.9 102.1 88 100 88 97.8 88 96.4 86.8 96.4 84.7L96.4 80.1C96.4 78 97.8 76.7 100 76.7 102.1 76.7 103.4 77.9 103.6 79.8L103.6 79.9 102.5 79.9 102.4 79.8C102.3 78.5 101.4 77.8 100 77.8 98.6 77.8 97.6 78.7 97.6 80.1L97.6 84.7C97.6 86.1 98.6 87 100 87 101.4 87 102.3 86.2 102.4 85ZM113.1 79.8L114.2 79.8 114.2 87.9 113.1 87.9 113.1 86.8C112.5 87.6 111.8 88 110.5 88 109.5 88 108.7 87.8 108 87.2 107.6 86.8 107.2 86 107.2 85.1L107.2 79.8 108.3 79.8 108.3 84.7C108.3 85.4 108.5 86 108.9 86.3 109.3 86.8 109.8 87 110.6 87 112 87 113.1 85.9 113.1 84.4L113.1 79.8ZM120.8 86.8L121.9 86.8 121.9 87.9 120.7 87.9C118.6 87.9 117.6 86.9 117.6 84.9L117.6 74.9 118.7 74.9 118.7 84.8C118.7 86.3 119.2 86.8 120.8 86.8ZM129.1 80.8L125.9 80.8 125.9 85.6C125.9 86.5 126.3 87 127.2 87 127.8 87 128.3 86.8 128.9 86.4L129.1 86.3 129.1 87.5 129 87.5C128.4 87.9 127.9 88 127.1 88 126.1 88 124.7 87.8 124.7 85.7L124.7 80.8 122.7 80.8 122.7 79.8 124.7 79.8 124.7 77.7 125.9 77.3 125.9 79.8 129.1 79.8 129.1 80.8ZM137.7 79.8L138.9 79.8 138.9 87.9 137.7 87.9 137.7 86.8C137.1 87.6 136.4 88 135.1 88 134.1 88 133.3 87.8 132.6 87.2 132.2 86.8 131.8 86 131.8 85.1L131.8 79.8 132.9 79.8 132.9 84.7C132.9 85.4 133.1 86 133.5 86.3 133.9 86.8 134.5 87 135.2 87 136.6 87 137.7 85.9 137.7 84.4L137.7 79.8ZM145.1 79.6C146.7 79.6 147.6 80.4 147.6 81.9L147.6 82.3 146.4 82.3 146.4 82C146.4 81.2 145.9 80.6 144.9 80.6 143.6 80.6 142.9 81.5 142.9 82.9L142.9 87.9 141.7 87.9 141.7 79.8 142.9 79.8 142.9 80.5C143 80.4 143.1 80.3 143.2 80.2 143.7 79.8 144.3 79.6 145.1 79.6Z"/><path d="M100 66C97.7 66 96.1 67.7 96.1 70.2 96.1 72.8 97.7 74.5 100 74.5 102.3 74.5 103.9 72.8 103.9 70.2 103.9 67.7 102.3 66 100 66M102.7 70.2C102.7 72.1 101.6 73.4 100 73.4 98.4 73.4 97.4 72.1 97.4 70.2 97.4 68.4 98.4 67.1 100 67.1 101.6 67.1 102.7 68.4 102.7 70.2"/><path d="M156.4 83.5C156.4 81.1 155.1 79.6 152.9 79.6 150.8 79.6 149.4 81.1 149.4 83.5 149.4 86.6 150.6 88 153.1 88 154.8 88 155.6 87.5 156.1 86.3L156.2 86.1 154.9 86.1 154.9 86.2C154.7 86.6 154.3 87 153.1 87 151.4 87 150.7 85.9 150.7 83.7L156.4 83.7 156.4 83.5ZM150.7 82.6C150.9 81.3 151.7 80.6 152.9 80.6 154.2 80.6 154.9 81.3 155.1 82.6L150.7 82.6Z"/><path d="M83.7 87.9L83.7 0 87.9 0 87.9 87.9 83.7 87.9ZM75.3 45.8L79.5 45.8 79.5 50 79.5 87.9 75.3 87.9 75.3 50 12.6 50 12.6 87.9 8.4 87.9 8.4 50 8.4 45.8 12.6 45.8 75.3 45.8ZM75.3 0L79.5 0 79.5 37.4 79.5 41.6 8.4 41.6 8.4 37.4 8.4 0 12.6 0 12.6 37.4 75.3 37.4 75.3 0ZM67 0L71.1 0 71.1 29.1 71.1 33.3 67 33.3 20.9 33.3 16.7 33.3 16.7 29.1 16.7 0 20.9 0 20.9 29.1 67 29.1 67 0ZM58.6 0L62.8 0 62.8 20.6 62.8 24.8 58.6 24.8 29.3 24.8 25.1 24.8 25.1 20.6 25.1 0 29.3 0 29.3 20.6 58.6 20.6 58.6 0ZM50.2 0L54.4 0 54.4 12.3 54.4 16.5 50.2 16.5 37.7 16.5 33.5 16.5 33.5 12.3 33.5 0 37.7 0 37.7 12.3 50.2 12.3 50.2 0ZM0 87.9L0 0 4.2 0 4.2 87.9 0 87.9ZM67 54.2L71.1 54.2 71.1 58.4 71.1 87.9 67 87.9 67 58.4 20.9 58.4 20.9 87.9 16.7 87.9 16.7 58.4 16.7 54.2 20.9 54.2 67 54.2ZM58.6 62.7L62.8 62.7 62.8 66.9 62.8 87.9 58.6 87.9 58.6 66.9 29.3 66.9 29.3 87.9 25.1 87.9 25.1 66.9 25.1 62.7 29.3 62.7 58.6 62.7ZM33.5 71L54.4 71 54.4 75.2 54.4 87.9 50.2 87.9 50.2 75.2 37.7 75.2 37.7 87.9 33.5 87.9 33.5 75.2 33.5 71Z"/></g></g></svg>