<svg width="45" height="63" viewBox="0 0 45 63" xmlns="http://www.w3.org/2000/svg"><title>  pointer</title><desc>  Created with Sketch.</desc><defs><path d="M0 2C0 0.9 0.9 0 2 0L38 0C39.1 0 40 0.9 40 2L40 38C40 39.1 39.3 40.6 38.5 41.4L21.5 57C20.7 57.8 19.3 57.8 18.5 57L1.5 41.4C0.7 40.6 0 39.1 0 38L0 2Z"/><filter x="-50" y="-50" width="200" height="200" filterUnits="objectBoundingBox"><feOffset dx="0" dy="1" in="SourceAlpha" result="shadowOffsetOuter1"/><feGaussianBlur stdDeviation="1" in="shadowOffsetOuter1" result="shadowBlurOuter1"/><feColorMatrix values="0 0 0 0 0   0 0 0 0 0   0 0 0 0 0  0 0 0 0.3 0" type="matrix" in="shadowBlurOuter1"/></filter></defs><g fill="none"><g transform="translate(-524 -475)translate(526.597632 476.867188)"><g opacity="0.9"><use filter="url(#filter-2)" xlink:href="#path-1" fill="black"/><use xlink:href="#path-1" fill="#FF2C70"/></g><path d="M34.5 36L34.5 4 36 4 36 36 34.5 36ZM31.4 20.7L32.9 20.7 32.9 22.2 32.9 36 31.4 36 31.4 22.2 8.6 22.2 8.6 36 7.1 36 7.1 22.2 7.1 20.7 8.6 20.7 31.4 20.7ZM31.4 4L32.9 4 32.9 17.6 32.9 19.1 7.1 19.1 7.1 17.6 7.1 4 8.6 4 8.6 17.6 31.4 17.6 31.4 4ZM28.4 4L29.9 4 29.9 14.6 29.9 16.1 28.4 16.1 11.6 16.1 10.1 16.1 10.1 14.6 10.1 4 11.6 4 11.6 14.6 28.4 14.6 28.4 4ZM25.3 4L26.9 4 26.9 11.5 26.9 13 25.3 13 14.7 13 13.1 13 13.1 11.5 13.1 4 14.7 4 14.7 11.5 25.3 11.5 25.3 4ZM22.3 4L23.8 4 23.8 8.5 23.8 10 22.3 10 17.7 10 16.2 10 16.2 8.5 16.2 4 17.7 4 17.7 8.5 22.3 8.5 22.3 4ZM4 36L4 4 5.5 4 5.5 36 4 36ZM28.4 23.7L29.9 23.7 29.9 25.3 29.9 36 28.4 36 28.4 25.3 11.6 25.3 11.6 36 10.1 36 10.1 25.3 10.1 23.7 11.6 23.7 28.4 23.7ZM25.3 26.8L26.9 26.8 26.9 28.4 26.9 36 25.3 36 25.3 28.4 14.7 28.4 14.7 36 13.1 36 13.1 28.4 13.1 26.8 14.7 26.8 25.3 26.8ZM16.2 29.8L23.8 29.8 23.8 31.4 23.8 36 22.3 36 22.3 31.4 17.7 31.4 17.7 36 16.2 36 16.2 31.4 16.2 29.8Z" fill="#FFF"/></g></g></svg>