<?xml version="1.0" encoding="UTF-8"?>
<svg width="45px" height="63px" viewBox="0 0 45 63" version="1.1" xmlns="http://www.w3.org/2000/svg" xmlns:xlink="http://www.w3.org/1999/xlink">
    <!-- Generator: Sketch 42 (36781) - http://www.bohemiancoding.com/sketch -->
    <title>pointer</title>
    <desc>Created with Sketch.</desc>
    <defs>
        <path d="M0,1.99729162 C0,0.894217919 0.891539827,1.13686838e-13 1.99729162,1.13686838e-13 L38.0027084,1.13686838e-13 C39.1057821,1.13686838e-13 40,0.891539827 40,1.99729162 L40,38.0027084 C40,39.1057821 39.3345642,40.6122009 38.5293522,41.3529959 L21.4706478,57.0470041 C20.6584314,57.7942431 19.3345642,57.7877991 18.5293522,57.0470041 L1.47064775,41.3529959 C0.658431426,40.6057569 0,39.1084602 0,38.0027084 L0,1.99729162 Z" id="path-1"></path>
        <filter x="-50%" y="-50%" width="200%" height="200%" filterUnits="objectBoundingBox" id="filter-2">
            <feOffset dx="0" dy="1" in="SourceAlpha" result="shadowOffsetOuter1"></feOffset>
            <feGaussianBlur stdDeviation="1" in="shadowOffsetOuter1" result="shadowBlurOuter1"></feGaussianBlur>
            <feColorMatrix values="0 0 0 0 0   0 0 0 0 0   0 0 0 0 0  0 0 0 0.3 0" type="matrix" in="shadowBlurOuter1"></feColorMatrix>
        </filter>
    </defs>
    <g id="Page-1" stroke="none" stroke-width="1" fill="none" fill-rule="evenodd">
        <g id="Desktop" transform="translate(-524.000000, -475.000000)">
            <g id="pointer" transform="translate(526.597632, 476.867188)">
                <g id="pointer-bg" opacity="0.9">
                    <use fill="black" fill-opacity="1" filter="url(#filter-2)" xlink:href="#path-1"></use>
                    <use fill="#FF2C70" fill-rule="evenodd" xlink:href="#path-1"></use>
                </g>
                <path d="M34.4709898,36 L34.4709898,4 L36,4 L36,36 L34.4709898,36 Z M31.4129693,20.6734926 L32.9419795,20.6734926 L32.9419795,22.2025028 L32.9419795,36 L31.4129693,36 L31.4129693,22.2025028 L8.58703072,22.2025028 L8.58703072,36 L7.05802048,36 L7.05802048,22.2025028 L7.05802048,20.6734926 L8.58703072,20.6734926 L31.4129693,20.6734926 Z M31.4129693,4 L32.9419795,4 L32.9419795,17.6154721 L32.9419795,19.1444824 L7.05802048,19.1444824 L7.05802048,17.6154721 L7.05802048,4 L8.58703072,4 L8.58703072,17.6154721 L31.4129693,17.6154721 L31.4129693,4 Z M28.3913538,4 L29.883959,4 L29.883959,14.5938567 L29.883959,16.1228669 L28.3913538,16.1228669 L11.6086462,16.1228669 L10.0796359,16.1228669 L10.0796359,14.5938567 L10.0796359,4 L11.6086462,4 L11.6086462,14.5938567 L28.3913538,14.5938567 L28.3913538,4 Z M25.3333333,4 L26.8623436,4 L26.8623436,11.4994312 L26.8623436,13.0284414 L25.3333333,13.0284414 L14.6666667,13.0284414 L13.1376564,13.0284414 L13.1376564,11.4994312 L13.1376564,4 L14.6666667,4 L14.6666667,11.4994312 L25.3333333,11.4994312 L25.3333333,4 Z M22.2753129,4 L23.8043231,4 L23.8043231,8.4778157 L23.8043231,10.0068259 L22.2753129,10.0068259 L17.7246871,10.0068259 L16.1956769,10.0068259 L16.1956769,8.4778157 L16.1956769,4 L17.7246871,4 L17.7246871,8.4778157 L22.2753129,8.4778157 L22.2753129,4 Z M4,36 L4,4 L5.52901024,4 L5.52901024,36 L4,36 Z M28.3913538,23.7315131 L29.883959,23.7315131 L29.883959,25.2605233 L29.883959,36 L28.3913538,36 L28.3913538,25.2605233 L11.6086462,25.2605233 L11.6086462,36 L10.0796359,36 L10.0796359,25.2605233 L10.0796359,23.7315131 L11.6086462,23.7315131 L28.3913538,23.7315131 Z M25.3333333,26.8259386 L26.8623436,26.8259386 L26.8623436,28.3549488 L26.8623436,36 L25.3333333,36 L25.3333333,28.3549488 L14.6666667,28.3549488 L14.6666667,36 L13.1376564,36 L13.1376564,28.3549488 L13.1376564,26.8259386 L14.6666667,26.8259386 L25.3333333,26.8259386 Z M16.1956769,29.847554 L23.8043231,29.847554 L23.8043231,31.3765643 L23.8043231,36 L22.2753129,36 L22.2753129,31.3765643 L17.7246871,31.3765643 L17.7246871,36 L16.1956769,36 L16.1956769,31.3765643 L16.1956769,29.847554 Z" id="H" fill="#FFFFFF" fill-rule="nonzero"></path>
            </g>
        </g>
    </g>
</svg>